<?xml version="1.0" standalone="no"?>
<!DOCTYPE svg PUBLIC "-//W3C//DTD SVG 20010904//EN"
 "http://www.w3.org/TR/2001/REC-SVG-20010904/DTD/svg10.dtd">
<svg version="1.0" xmlns="http://www.w3.org/2000/svg"
 width="300.000000pt" height="300.000000pt" viewBox="0 0 300.000000 300.000000"
 preserveAspectRatio="xMidYMid meet">
<metadata>
Created by potrace 1.10, written by Peter Selinger 2001-2011
</metadata>
<g transform="translate(0.000000,300.000000) scale(0.100000,-0.100000)"
fill="#000000" stroke="none">
<path d="M1180 2141 c0 -26 29 -79 54 -98 l27 -21 -30 -47 c-34 -54 -56 -142
-47 -190 6 -31 5 -32 -32 -38 -176 -23 -277 -219 -198 -381 48 -99 145 -151
265 -144 38 2 73 7 77 10 3 4 0 29 -6 56 l-13 49 -61 -4 c-52 -4 -66 -2 -95
19 -98 66 -99 200 -1 265 44 30 121 31 169 2 l34 -21 36 40 c29 33 45 42 83
47 26 3 57 14 69 24 21 16 21 20 7 40 -13 18 -17 19 -27 7 -7 -8 -28 -20 -47
-26 -105 -35 -218 72 -185 173 37 110 159 134 243 46 l36 -38 39 38 c66 67
149 72 207 14 32 -32 40 -60 33 -119 -5 -51 -34 -89 -84 -110 -44 -19 -72 -18
-118 6 -39 20 -39 20 -59 0 -20 -19 -20 -19 25 -39 48 -22 128 -27 160 -11 10
6 19 7 19 3 0 -5 -18 -71 -40 -147 -22 -76 -40 -145 -40 -152 0 -37 -19 -4
-56 99 l-41 112 -41 3 -40 3 -41 -106 c-23 -58 -41 -110 -41 -115 0 -6 -4 -10
-8 -10 -4 0 -17 33 -27 73 -12 43 -29 81 -43 94 -22 20 -104 64 -110 58 -1 -1
20 -74 48 -161 28 -88 56 -174 62 -192 10 -32 11 -33 60 -30 l51 3 42 108 c42
108 55 133 55 106 0 -9 18 -60 39 -115 l39 -99 50 -3 c41 -2 51 0 56 15 3 10
39 126 80 259 65 204 76 251 76 311 0 75 -17 136 -50 182 l-20 29 34 35 c28
30 52 84 41 95 -1 2 -20 -4 -41 -12 -99 -38 -151 -48 -196 -35 -57 15 -171 15
-235 0 -47 -12 -58 -11 -135 14 -46 14 -89 29 -95 31 -7 3 -13 1 -13 -5z m149
-74 l43 -13 -26 -17 c-14 -9 -32 -17 -40 -17 -17 0 -48 39 -40 52 7 10 11 10
63 -5z m330 -9 l23 -16 -39 -12 c-21 -7 -54 -23 -72 -36 -30 -20 -37 -22 -50
-10 -25 22 -90 56 -108 56 -28 0 6 28 40 33 65 10 183 1 206 -15z m154 16 c11
-11 -24 -54 -42 -50 -36 9 -61 19 -61 25 0 13 92 35 103 25z m-536 -334 c25
-22 50 -40 54 -40 14 0 10 -40 -4 -46 -7 -2 -35 2 -62 11 -66 20 -93 19 -141
-4 -116 -56 -148 -209 -63 -306 31 -35 74 -54 135 -60 43 -4 66 -21 45 -34
-20 -12 -108 -3 -142 15 -41 21 -98 73 -114 104 -20 38 -26 128 -13 174 7 21
31 60 55 86 33 37 54 51 93 61 47 12 100 49 100 69 0 17 10 11 57 -30z m573
-6 c-5 -20 -13 -48 -18 -62 -6 -15 -20 -61 -32 -102 -13 -41 -28 -93 -35 -115
-8 -22 -21 -64 -30 -94 -40 -133 -77 -133 -122 -1 -46 137 -96 132 -153 -15
-29 -75 -38 -87 -63 -83 -16 2 -28 24 -53 98 -18 52 -35 111 -39 130 -6 35 -6
35 13 15 10 -11 26 -41 36 -66 9 -26 25 -54 35 -63 30 -27 53 -4 96 95 44 105
63 114 93 47 10 -24 22 -55 26 -71 3 -15 20 -42 36 -60 l30 -32 30 34 c16 19
27 38 24 42 -2 4 0 10 6 14 5 3 10 17 10 31 0 13 4 32 9 42 17 32 42 157 36
174 -8 21 33 77 56 77 14 1 16 -5 9 -35z"/>
<path d="M1340 1913 c-50 -64 18 -146 95 -117 18 7 45 55 45 79 0 9 -11 27
-25 40 -34 35 -86 34 -115 -2z m98 1 c34 -23 27 -83 -10 -104 -25 -13 -31 -13
-55 0 -38 21 -45 81 -11 104 12 9 29 16 38 16 9 0 26 -7 38 -16z"/>
<path d="M1372 1904 c-41 -29 -23 -84 28 -84 32 0 50 17 50 46 0 20 -32 54
-50 54 -3 0 -16 -7 -28 -16z"/>
<path d="M1622 1917 c-28 -29 -28 -67 -1 -101 30 -38 79 -36 113 5 30 36 31
40 11 78 -24 48 -87 57 -123 18z m98 -7 c58 -58 -19 -140 -83 -90 -33 26 -34
56 -5 87 26 28 61 30 88 3z"/>
<path d="M1652 1904 c-24 -17 -29 -53 -10 -72 19 -19 66 -15 78 7 14 28 13 38
-10 61 -24 24 -29 24 -58 4z"/>
<path d="M1506 1832 c-24 -26 -25 -30 -11 -42 13 -11 18 -10 30 6 15 19 15 19
30 0 11 -15 18 -17 26 -9 9 9 6 20 -10 42 -13 17 -26 31 -30 31 -4 0 -20 -13
-35 -28z"/>
<path d="M739 1061 c-20 -20 -29 -39 -29 -61 0 -47 47 -90 97 -90 50 1 81 23
63 45 -9 11 -16 12 -26 4 -40 -33 -109 23 -80 66 15 23 61 32 80 16 10 -8 17
-7 27 5 11 14 10 18 -6 30 -34 25 -93 18 -126 -15z"/>
<path d="M900 1000 l0 -90 65 0 c58 0 65 2 65 20 0 17 -7 20 -40 20 l-40 0 0
70 c0 68 -1 70 -25 70 -25 0 -25 -1 -25 -90z"/>
<path d="M1050 1000 l0 -90 69 0 c65 0 69 1 64 21 -5 18 -12 20 -49 17 -37 -3
-44 0 -44 14 0 14 9 18 40 18 33 0 40 3 40 20 0 17 -7 20 -40 20 -29 0 -40 4
-40 15 0 11 12 15 45 15 38 0 45 3 45 20 0 18 -7 20 -65 20 l-65 0 0 -90z"/>
<path d="M1210 1000 c0 -88 1 -90 23 -90 20 0 23 4 19 30 -6 41 23 41 46 0 12
-22 24 -30 45 -30 l28 0 -22 30 c-21 28 -21 31 -6 48 24 26 21 68 -5 86 -14
10 -44 16 -75 16 l-53 0 0 -90z m105 25 c0 -15 -8 -21 -32 -23 -30 -3 -33 -1
-33 23 0 24 3 26 33 23 24 -2 32 -8 32 -23z"/>
<path d="M1390 1000 c0 -83 1 -90 20 -90 14 0 20 7 20 24 0 13 6 29 14 35 11
9 18 5 36 -24 17 -27 28 -35 51 -35 l30 0 -36 46 c-19 26 -35 51 -35 55 0 5
14 24 31 44 l31 35 -25 0 c-17 0 -37 -13 -62 -42 l-36 -43 3 43 c3 38 1 42
-19 42 -22 0 -23 -3 -23 -90z"/>
<path d="M1625 1069 c41 -129 53 -154 72 -157 18 -3 24 6 38 53 9 32 19 55 21
52 3 -3 11 -27 18 -54 10 -40 16 -48 35 -48 20 0 26 12 51 88 l28 87 -23 0
c-19 0 -24 -8 -36 -60 -7 -33 -16 -60 -20 -60 -3 0 -12 27 -18 60 -11 52 -15
60 -35 60 -20 0 -25 -8 -35 -55 -7 -30 -16 -55 -21 -55 -5 0 -14 25 -21 55
-11 48 -15 55 -36 55 -20 0 -23 -4 -18 -21z"/>
<path d="M1910 1023 c0 -38 -3 -78 -6 -90 -5 -20 -2 -23 20 -23 l26 0 0 90 c0
83 -1 90 -20 90 -18 0 -20 -7 -20 -67z"/>
<path d="M1977 1084 c-3 -3 -3 -12 0 -20 4 -10 16 -12 44 -8 21 4 39 3 39 -1
0 -4 -20 -33 -45 -63 -63 -76 -61 -82 30 -82 70 0 75 1 75 21 0 20 -4 21 -45
16 -25 -4 -45 -4 -45 -2 0 3 20 30 45 61 63 76 60 84 -23 84 -38 0 -71 -3 -75
-6z"/>
<path d="M2150 1000 l0 -90 65 0 c60 0 65 2 65 21 0 20 -4 21 -45 17 -25 -3
-46 -2 -46 3 -6 30 -2 34 36 34 30 0 40 4 43 18 3 14 -4 17 -43 17 -39 0 -46
3 -43 18 3 14 12 16 51 14 42 -3 47 -1 47 17 0 19 -6 21 -65 21 l-65 0 0 -90z"/>
</g>
</svg>
