<?xml version="1.0" encoding="UTF-8"?>
<svg version="1.1" xmlns="http://www.w3.org/2000/svg" width="1080" height="1080">
<path d="M0 0 C356.4 0 712.8 0 1080 0 C1080 356.4 1080 712.8 1080 1080 C723.6 1080 367.2 1080 0 1080 C0 723.6 0 367.2 0 0 Z " fill="#FEFEFE" transform="translate(0,0)"/>
<path d="M0 0 C5.65210256 1.81915698 11.20886599 3.8178713 16.74780273 5.95556641 C40.35711229 15.03868983 64.5436371 22.55889956 89 29 C90.05779663 29.28031067 90.05779663 29.28031067 91.13696289 29.56628418 C95.92696204 30.8348579 100.72131986 32.0850161 105.52114868 33.31588745 C107.11225622 33.72520393 108.70243826 34.13813776 110.29159546 34.55496216 C121.83299354 37.57222409 131.59535066 39.21025088 143.3125 36.25 C144.8821642 35.87875853 146.45250898 35.51038574 148.0234375 35.14453125 C148.83522461 34.95455566 149.64701172 34.76458008 150.48339844 34.56884766 C196.48302828 24.17118201 245.02900047 19.25120308 292 25 C292.81678223 25.09651855 293.63356445 25.19303711 294.47509766 25.29248047 C310.82448737 27.3019211 327.49022052 30.89715537 342.015625 38.8984375 C349.89915257 41.80832595 358.10526324 39.38888094 366 37.5 C367.14227051 37.23010254 368.28454102 36.96020508 369.46142578 36.68212891 C380.30326177 34.04742692 390.86948375 30.7489893 401.44042969 27.1953125 C405.33364535 25.88796107 409.23282567 24.59946425 413.1328125 23.3125 C426.22915871 18.98254222 439.30361391 14.59097072 452.3515625 10.1171875 C453.29441101 9.79410614 454.23725952 9.47102478 455.2086792 9.13815308 C459.83219694 7.55312194 464.45425846 5.964023 469.07421875 4.36865234 C470.74997547 3.79257186 472.42575551 3.21655922 474.1015625 2.640625 C475.25986069 2.23842239 475.25986069 2.23842239 476.44155884 1.82809448 C481.77354545 0 481.77354545 0 484 0 C483.06143982 27.40595715 472.1995634 53.64808192 452.3125 72.6875 C447.28798242 77.08692011 441.76116356 80.2312166 435.90625 83.37109375 C432.98141557 84.8378473 432.98141557 84.8378473 431 87 C431.68964844 87.78761719 432.37929688 88.57523437 433.08984375 89.38671875 C439.62716282 96.9304994 445.55677018 104.61527615 451 113 C451.54454834 113.83772949 451.54454834 113.83772949 452.10009766 114.69238281 C463.15663895 131.88927942 471.30476891 150.3874935 477 170 C477.20850586 170.71542969 477.41701172 171.43085938 477.63183594 172.16796875 C488.8369273 211.84873075 487.23822873 258.18750501 473.96435547 297.14160156 C472.78649916 300.63282731 471.65912714 304.1396021 470.53515625 307.6484375 C469.23046553 311.71888092 467.92538379 315.78909328 466.6027832 319.85375977 C464.76232151 325.5118794 462.93546245 331.17104324 461.203125 336.86328125 C458.25805809 346.49656146 455.12675591 356.07105102 452.03366089 365.65756226 C445.10272212 387.14699568 438.23324836 408.65491614 431.4375 430.1875 C431.05434631 431.4013739 430.67119263 432.6152478 430.27642822 433.86590576 C426.23009775 446.69087648 422.20550834 459.52173061 418.25 472.375 C414.59515802 484.23886643 410.74427907 496.03547004 406.88424683 507.8336792 C395.08148878 543.92965511 383.65399861 580.15130166 372.25 616.375 C371.91568466 617.43545532 371.91568466 617.43545532 371.57461548 618.51733398 C370.97026899 620.43561047 370.36787872 622.35450295 369.765625 624.2734375 C369.44368164 625.29872559 369.12173828 626.32401367 368.79003906 627.38037109 C368.13004046 629.56880898 367.55438671 631.78245318 367 634 C346.54 634 326.08 634 305 634 C297.48329946 616.02086493 290.16124604 597.9735747 282.9375 579.875 C274.36142433 558.38929347 265.74950615 536.91839663 257.10335159 515.46079254 C256.1880586 513.18888654 255.27315536 510.91682396 254.35836792 508.64471436 C252.91874044 505.06915248 251.47824271 501.49394254 250.03701019 497.91902733 C249.50318705 496.59459275 248.96962902 495.27005128 248.43634796 493.94539833 C247.70600077 492.13149128 246.97449213 490.318052 246.24291992 488.50463867 C245.62630745 486.9747657 245.62630745 486.9747657 244.99723816 485.41398621 C244.38063615 483.92139516 243.72222241 482.44444482 243 481 C236.47746979 494.53064678 230.67007067 508.35971499 224.8125 522.1875 C223.76788071 524.64791564 222.72302927 527.10823087 221.67773438 529.56835938 C220.14026807 533.18721845 218.60296684 536.80614625 217.06668091 540.42550659 C214.18993864 547.20283452 211.30655212 553.97707751 208.39993286 560.74165344 C203.98371183 571.02041681 199.58684027 581.30722955 195.20703125 591.6015625 C194.68359815 592.83126066 194.16013462 594.06094588 193.63664246 595.2906189 C191.49591978 600.3192651 189.35545949 605.34802249 187.21655273 610.37744141 C185.71387566 613.91069335 184.21049184 617.4436439 182.70703125 620.9765625 C182.24722366 622.05845856 181.78741608 623.14035461 181.31367493 624.2550354 C180.68044563 625.74261856 180.68044563 625.74261856 180.03442383 627.26025391 C179.66424637 628.13066315 179.29406891 629.00107239 178.91267395 629.89785767 C178.31183167 631.28176479 177.67471629 632.65056742 177 634 C168.82039446 634.06943077 160.64091149 634.12277566 152.46108437 634.15543652 C148.66307817 634.17111006 144.86527319 634.19237859 141.06738281 634.22631836 C137.40397533 634.25885241 133.74076169 634.27684029 130.07722092 634.28463173 C128.6777173 634.29018603 127.27822461 634.30103199 125.87880325 634.31719017 C123.92272489 634.33888273 121.96645252 634.3402247 120.01025391 634.34057617 C118.8955069 634.34723801 117.78075989 634.35389984 116.63223267 634.36076355 C115.76359589 634.24171158 114.89495911 634.12265961 114 634 C111.81656369 630.72484554 111.08126651 628.15183143 110.02734375 624.359375 C107.60150195 615.85856486 104.94841483 607.43424608 102.25390625 599.015625 C102.03297617 598.32476618 101.81204609 597.63390736 101.58442116 596.92211342 C100.16262281 592.47709038 98.73788397 588.03301385 97.31248093 583.58914566 C96.03364848 579.60054374 94.75722701 575.61117054 93.48071289 571.62182617 C92.95641125 569.98338138 92.43210397 568.3449384 91.90779114 566.70649719 C91.51577483 565.48147208 91.51577483 565.48147208 91.115839 564.23169899 C90.31702962 561.73583646 89.5179537 559.24005942 88.71879578 556.74430847 C83.89614635 541.68258017 79.08925598 526.61585145 74.28720093 511.54754639 C72.93501633 507.30455001 71.58240975 503.06168822 70.22973633 498.81884766 C66.25787972 486.36026435 62.28699815 473.90137066 58.31747913 461.44204235 C56.34279289 455.24403585 54.36774967 449.04614317 52.39249706 442.84831715 C51.22691693 439.19093964 50.06153414 435.53349955 48.896698 431.87588501 C47.81428516 428.4770847 46.73141723 425.07842975 45.64814568 421.67990303 C45.22929682 420.36572705 44.8105698 419.05151223 44.39196968 417.737257 C41.99442125 410.21110985 39.57948589 402.69094597 37.13867188 395.17871094 C36.6685905 393.72989182 36.19851795 392.28106984 35.72845459 390.83224487 C34.83356835 388.07456866 33.93476659 385.31820979 33.03375244 382.56253052 C32.63557312 381.33646088 32.2373938 380.11039124 31.82714844 378.84716797 C31.47344177 377.7633786 31.11973511 376.67958923 30.75531006 375.56295776 C30 373 30 373 30 371 C60.85184498 374.52948428 88.95923462 391.95329713 111 413 C111.59173508 413.46812607 112.18347015 413.93625214 112.7931366 414.41856384 C119.98983503 420.61446841 122.07602834 428.33978937 124.75 437.08984375 C125.25532946 438.67830537 125.76286306 440.26606727 126.27246094 441.85316467 C127.60632344 446.02735264 128.91057337 450.21021081 130.20849609 454.39569092 C131.50696682 458.56555624 132.83252521 462.72676921 134.15625 466.88867188 C136.19315373 473.30216835 138.2125005 479.72089613 140.21875 486.14404297 C141.95820525 491.71094447 143.72550288 497.26721282 145.53125 502.81298828 C146.09924316 504.56066246 146.09924316 504.56066246 146.67871094 506.34364319 C147.36984126 508.46309441 148.06547514 510.58108489 148.76660156 512.69725037 C149.0653418 513.61514847 149.36408203 514.53304657 149.671875 515.47875977 C150.06004395 516.65499657 150.06004395 516.65499657 150.45605469 517.85499573 C151 520 151 520 151 524 C151.66 524 152.32 524 153 524 C153.3815625 522.78828125 153.763125 521.5765625 154.15625 520.328125 C156.27117273 513.99811209 158.89490392 507.89006262 161.5 501.75 C162.0678446 500.4045858 162.63537958 499.0590409 163.20263672 497.71337891 C164.45183575 494.75178034 165.70317762 491.79109913 166.95605469 488.83105469 C169.11266795 483.7353864 171.26355621 478.63731047 173.4140625 473.5390625 C179.11954921 460.01550699 184.83217442 446.49496827 190.54638672 432.97509766 C192.64386517 428.01243359 194.74093777 423.04959822 196.83764648 418.08660889 C197.6496988 416.1645602 198.46187192 414.24256254 199.27416992 412.32061768 C202.99550674 403.51491397 206.71655278 394.70934085 210.37890625 385.87890625 C210.85513428 384.73075439 211.3313623 383.58260254 211.82202148 382.3996582 C212.65872556 380.37711383 213.49307721 378.35359378 214.32446289 376.32885742 C214.67371826 375.48299072 215.02297363 374.63712402 215.3828125 373.765625 C215.67559082 373.05180664 215.96836914 372.33798828 216.27001953 371.60253906 C217 370 217 370 218 369 C219.50418739 368.90688111 221.01271356 368.88253972 222.51977539 368.88647461 C223.96115623 368.88658791 223.96115623 368.88658791 225.43165588 368.88670349 C226.99882607 368.89444542 226.99882607 368.89444542 228.59765625 368.90234375 C230.19364906 368.90446617 230.19364906 368.90446617 231.82188416 368.90663147 C235.23545083 368.91224936 238.648953 368.92480489 242.0625 368.9375 C244.37044176 368.94251269 246.67838455 368.947076 248.98632812 368.95117188 C254.65757426 368.9622246 260.32878253 368.97898013 266 369 C270.30450819 378.1226619 274.31339205 387.34039276 278.203125 396.64526367 C279.58178057 399.94316371 280.96564086 403.23887325 282.34902954 406.53479004 C283.08804364 408.29566521 283.82678889 410.05665324 284.5652771 411.81774902 C288.45985988 421.10374023 292.37821954 430.37965111 296.29785156 439.65509033 C304.5968289 459.29479548 312.87618236 478.94272671 321.14599609 498.59472656 C324.42943654 506.39700108 327.71487577 514.19843433 331 522 C333.34974836 518.47537746 334.24224472 514.97652073 335.3125 510.9375 C335.75636652 509.30074222 336.20038101 507.66402456 336.64453125 506.02734375 C336.86963379 505.19058105 337.09473633 504.35381836 337.32666016 503.49169922 C338.36339441 499.65525624 339.43224788 495.82790188 340.5 492 C340.91945572 490.49093679 341.33872625 488.9818221 341.7578125 487.47265625 C341.96438477 486.72902832 342.17095703 485.98540039 342.38378906 485.21923828 C342.9828816 483.06165067 343.58137591 480.90389804 344.1796875 478.74609375 C346.90752007 468.91153948 349.65545542 459.08270609 352.40917969 449.25537109 C354.75370097 440.88591588 357.08485074 432.51283033 359.40722656 424.13720703 C360.43698435 420.42448066 361.46861275 416.71227397 362.5 413 C362.91667505 411.50000233 363.33334173 410.00000233 363.75 408.5 C364.58333333 405.5 365.41666667 402.5 366.25 399.5 C366.45608887 398.75806396 366.66217773 398.01612793 366.87451172 397.25170898 C367.29277244 395.74600305 367.71106691 394.24030649 368.12939453 392.73461914 C369.14694397 389.07199462 370.1639806 385.40922969 371.1796875 381.74609375 C373.90671304 371.91444905 376.65332519 362.08837897 379.40698242 352.26416016 C381.17631789 345.94945455 382.93687118 339.63241484 384.6875 333.3125 C386.75147434 325.86332946 388.86226203 318.42834089 391 311 C389.76765625 311.39832031 388.5353125 311.79664063 387.265625 312.20703125 C368.87578622 318.11233279 368.87578622 318.11233279 360 320 C359.08476563 320.20496094 358.16953125 320.40992188 357.2265625 320.62109375 C324.34362063 326.87834647 291.14106312 318.2927304 262.375 302.375 C261.72362061 302.01494873 261.07224121 301.65489746 260.40112305 301.28393555 C256.2105362 298.88923665 252.62951039 296.18280142 249 293 C254.66868339 281.94736161 261.411853 271.5178932 268 261 C270.89447845 262.38314325 272.70279147 263.5822624 274.8125 266 C285.9951514 277.47000005 301.67865533 285.04002169 317 289 C317.87914062 289.2784375 318.75828125 289.556875 319.6640625 289.84375 C344.12197917 296.81328826 370.36445932 290.85302326 392.33203125 279.23828125 C394.99654504 277.60297879 397.50133438 275.87800348 400 274 C401.36125 272.98486328 401.36125 272.98486328 402.75 271.94921875 C422.98007275 256.13042575 436.38665149 233.41803778 440 208 C440.12890625 207.2575 440.2578125 206.515 440.390625 205.75 C444.19497062 181.72255398 436.88662387 155.76376916 422.953125 136.11328125 C421.03072175 133.68047249 419.0394539 131.33496661 417 129 C416.47148438 128.32839844 415.94296875 127.65679687 415.3984375 126.96484375 C400.24870369 108.19559226 375.53123978 98.07802954 352.18554688 95.22265625 C326.58858269 92.61492263 300.55400518 100.18063593 280.44750977 116.22631836 C263.15797424 130.50096232 250.79193115 149.00714851 246.18994141 171.08740234 C245.84430131 172.73645502 245.4285834 174.37053442 245 176 C244.34 176.33 243.68 176.66 243 177 C242.76925781 176.05640625 242.53851562 175.1128125 242.30078125 174.140625 C235.59137803 147.41156719 221.78235984 124.6547846 198.14306641 109.8359375 C174.77675394 95.90262425 147.43798279 90.85008099 120.85986328 97.53857422 C104.62312042 102.00554418 90.47107095 109.64455201 78 121 C77.23429688 121.67289062 76.46859375 122.34578125 75.6796875 123.0390625 C60.13164018 137.5036222 47.96087445 161.12352719 46.87548828 182.44604492 C46.04539452 211.92984101 51.90914292 237.48631229 72 260 C72.72574219 260.81984375 73.45148438 261.6396875 74.19921875 262.484375 C90.70883363 280.05824604 114.57801486 291.08257857 138.63671875 292.41015625 C168.31752345 293.25221968 193.44205663 283.44214997 215.37109375 263.28515625 C217 262 217 262 219 262 C220.47019078 263.93886422 221.81042093 265.86925777 223.1328125 267.90625 C223.52951141 268.50554321 223.92621033 269.10483643 224.33493042 269.72229004 C225.60482595 271.64397292 226.86496325 273.57184182 228.125 275.5 C228.98243934 276.80119897 229.84050426 278.10198595 230.69921875 279.40234375 C232.80677725 282.59682085 234.90560351 285.79687961 237 289 C235.14503899 293.14743847 232.53926378 295.1145953 228.8125 297.5625 C228.16539062 297.98942139 227.51828125 298.41634277 226.8515625 298.85620117 C208.53018278 310.53354081 185.84769396 321.53570669 163.68359375 320.87890625 C152.85040917 320.2377493 152.85040917 320.2377493 143.421875 324.6015625 C140.96535236 327.28886919 138.96465479 330.22981995 137.05566406 333.32373047 C135.55562005 335.70562274 133.79224229 337.83288632 132 340 C131.36964844 340.79535156 130.73929687 341.59070313 130.08984375 342.41015625 C127.17203556 346.02605687 124.16047407 349.55920383 121.14990234 353.09790039 C117.36088561 357.55707887 113.64422112 362.07188556 109.94921875 366.609375 C107.65397477 369.42438365 105.33260241 372.21592616 103 375 C98.882359 373.58781265 96.00645828 371.59342725 92.625 368.875 C69.3340356 350.89185281 40.14107107 344.19822249 11.11621094 347.30908203 C-12.18663891 350.44307919 -34.51005708 358.22678547 -53 373 C-53.61875 373.45503906 -54.2375 373.91007812 -54.875 374.37890625 C-69.87225979 386.00872576 -78.14616458 404.95184004 -82 423 C-82.2638147 424.12317627 -82.2638147 424.12317627 -82.53295898 425.26904297 C-83.96089194 431.68045559 -84.34959338 437.81646097 -84.3125 444.375 C-84.30758545 445.41720703 -84.3026709 446.45941406 -84.29760742 447.53320312 C-83.81356585 480.16008736 -72.54382987 508.94813076 -49 532 C-27.51256723 550.39902501 -2.61255269 555.19998477 25 554 C35.03843348 553.17332724 44.68310841 550.77056463 54.2578125 547.71411133 C58.5022593 546.36250717 62.59057748 545.58370188 67 545 C69.87719986 553.64647548 72.74636277 562.29556392 75.60533142 570.94808483 C76.93314949 574.96581344 78.26370651 578.98259098 79.60058594 582.99731445 C80.89090353 586.87254889 82.17394347 590.75012329 83.45199585 594.62941933 C83.94060418 596.10822307 84.43181842 597.58616846 84.9256897 599.06322289 C85.61755723 601.13392311 86.30005414 603.20749546 86.98046875 605.28198242 C87.37129639 606.46112717 87.76212402 607.64027191 88.16479492 608.85514832 C88.94444779 611.79082568 89.39112461 613.99325028 89 617 C73.35214935 630.00447317 46.70631035 629.4955776 27.55078125 629.28125 C24.73684319 629.2498532 21.92347198 629.24022551 19.109375 629.234375 C-12.38260363 629.10650345 -12.38260363 629.10650345 -26.5625 625 C-27.65675293 624.69312256 -28.75100586 624.38624512 -29.87841797 624.07006836 C-47.30699437 619.04379812 -64.0215887 612.57963193 -80 604 C-80.93070312 603.53464844 -81.86140625 603.06929687 -82.8203125 602.58984375 C-88.78175089 599.5379432 -94.26274975 595.88371476 -99.75 592.0625 C-100.45954834 591.57233398 -101.16909668 591.08216797 -101.90014648 590.57714844 C-106.12243807 587.57994954 -109.81960388 584.37885205 -113.39257812 580.62939453 C-115.09411876 578.90459468 -116.88759691 577.36079931 -118.75 575.8125 C-145.4299338 552.51886549 -161.80445374 516.90482439 -166 482 C-166.29622588 476.8531629 -166.3400058 471.71625838 -166.3125 466.5625 C-166.31067719 465.85023254 -166.30885437 465.13796509 -166.30697632 464.40411377 C-166.07868599 410.83247924 -152.48273523 361.96859918 -116 322 C-115.25363281 321.18144531 -114.50726563 320.36289062 -113.73828125 319.51953125 C-107.43425525 312.93584421 -100.30705385 307.41349919 -93 302 C-92.44135254 301.58105469 -91.88270508 301.16210938 -91.30712891 300.73046875 C-74.29332652 288.13875597 -54.37813052 279.43986082 -34 274 C-32.91589844 273.68675781 -31.83179688 273.37351562 -30.71484375 273.05078125 C-20.37563436 270.3158936 -9.62892842 269.79713385 1 269 C0.87882813 268.24420654 0.75765625 267.48841309 0.6328125 266.7097168 C-7.66268424 213.4470442 -3.97101971 156.48423738 28.56616211 111.30102539 C43.78963864 91.07012045 43.78963864 91.07012045 50 89 C47.17226749 86.02101669 44.24386426 83.65499017 40.875 81.3125 C19.55422131 65.97401427 3.96024345 45.32137215 -0.6875 19.125 C-2.19225779 4.38451557 -2.19225779 4.38451557 0 0 Z " fill="#4C056E" transform="translate(361,105)"/>
<path d="M0 0 C16.77751089 15.55757202 25.5404342 34.27777561 31.3059082 56.14135742 C31.5018457 55.18358398 31.6977832 54.22581055 31.8996582 53.23901367 C37.66238487 26.90896843 53.27705186 4.53811905 75.8059082 -10.42114258 C89.65424399 -19.28795327 105.84353278 -25.05328896 122.3059082 -25.85864258 C123.35649414 -25.9230957 124.40708008 -25.98754883 125.48950195 -26.05395508 C153.80834497 -26.98447566 179.06981749 -16.32945254 199.76879883 2.66772461 C208.13850966 10.69179935 214.01131213 19.95488623 219.3059082 30.14135742 C219.78930664 31.04370117 220.27270508 31.94604492 220.77075195 32.87573242 C225.89965061 43.16470844 228.81502641 55.64654209 229.3059082 67.14135742 C229.38325195 68.50647461 229.38325195 68.50647461 229.4621582 69.89916992 C230.19652884 94.31699366 222.25194551 118.51531385 206.3059082 137.14135742 C205.32364258 138.34018555 205.32364258 138.34018555 204.3215332 139.56323242 C188.90785515 157.67711685 165.18200461 171.0176497 141.3059082 173.14135742 C113.59137002 174.94784552 87.87002674 168.88156904 66.3527832 150.63745117 C64.67741048 149.11149034 63.02043946 147.56480319 61.3918457 145.98901367 C59.41191077 144.23525108 57.67468619 143.26202635 55.3059082 142.14135742 C54.95399414 142.73972412 54.60208008 143.33809082 54.23950195 143.95458984 C37.74571164 171.98165226 37.74571164 171.98165226 32.3059082 180.14135742 C28.14489389 178.75435265 27.05419672 175.87005699 24.9309082 172.26635742 C20.37546842 164.72721746 15.48580734 157.4691656 10.42163086 150.26293945 C9.88586426 149.49320801 9.35009766 148.72347656 8.7980957 147.93041992 C8.07662354 146.90489014 8.07662354 146.90489014 7.34057617 145.85864258 C6.3059082 144.14135742 6.3059082 144.14135742 6.3059082 142.14135742 C5.63946289 142.69823242 4.97301758 143.25510742 4.28637695 143.82885742 C1.31235182 146.29126704 -1.68533691 148.72151817 -4.6940918 151.14135742 C-5.54616211 151.83358398 -6.39823242 152.52581055 -7.27612305 153.23901367 C-27.89362521 169.16928032 -53.97834538 175.43316981 -79.6940918 173.14135742 C-106.73413371 169.45996189 -129.53167611 155.48390524 -146.7800293 134.61791992 C-163.35736291 112.03974156 -169.62405674 85.42531888 -166.40551758 57.65112305 C-163.11555602 37.0723031 -152.30737924 17.77883905 -137.6940918 3.14135742 C-136.87424805 2.30991211 -136.0544043 1.4784668 -135.2097168 0.62182617 C-97.83282045 -35.37278851 -38.06347933 -33.80621721 0 0 Z " fill="#FEFDFD" transform="translate(573.694091796875,224.858642578125)"/>
<path d="M0 0 C10.23 0 20.46 0 31 0 C33.3430787 7.66381992 35.67706139 15.330083 38 23 C38.34724121 24.14355957 38.69448242 25.28711914 39.05224609 26.46533203 C42.74146798 38.64130356 46.37050271 50.77548154 49.12890625 63.19921875 C50.04308556 67.18799217 51.09743732 71.11935509 52.1875 75.0625 C53.54805425 80.06720543 54.57825594 84.83363524 55 90 C55.66 90 56.32 90 57 90 C57.15239136 89.01882202 57.15239136 89.01882202 57.30786133 88.01782227 C58.52027965 80.75934114 60.4282377 73.93241481 62.6875 66.9375 C63.48435578 64.42265397 64.27904724 61.90722685 65.0703125 59.390625 C65.28955887 58.69450607 65.50880524 57.99838715 65.73469543 57.28117371 C69.28815606 45.95067064 72.65878748 34.56363905 76.0625 23.1875 C76.74892163 20.8950948 77.4353633 18.60269559 78.12182617 16.31030273 C79.74951786 10.87402164 81.37468363 5.43699377 83 0 C89.93 0 96.86 0 104 0 C107.37898936 9.0106383 107.37898936 9.0106383 108.796875 13.625 C109.26988037 15.16124023 109.26988037 15.16124023 109.75244141 16.72851562 C110.08163574 17.80810547 110.41083008 18.88769531 110.75 20 C111.09853027 21.13630859 111.44706055 22.27261719 111.80615234 23.44335938 C114.14747014 31.10971516 116.4054451 38.79764573 118.625 46.5 C121.30794361 55.80969265 124.26894449 64.99516921 127.38183594 74.16845703 C128.23915632 76.70859033 129.07128792 79.25489287 129.875 81.8125 C130.21144531 82.87404297 130.21144531 82.87404297 130.5546875 83.95703125 C131.07571132 86.34734228 131.07661756 88.5610077 131 91 C131.66 91 132.32 91 133 91 C133.061875 89.865625 133.12375 88.73125 133.1875 87.5625 C133.69343987 82.97744772 134.8959442 78.70644361 136.24609375 74.3125 C138.78327004 65.87208205 141.04629685 57.37568794 143.25222778 48.84365845 C152.05273703 14.8417889 152.05273703 14.8417889 157 0 C167.23 0 177.46 0 188 0 C186.13072413 6.85401152 184.23450247 13.62278012 182.0625 20.375 C180.40672035 25.55210079 178.77072469 30.73374061 177.18041992 35.93139648 C175.00341535 43.01420648 172.76524273 50.076691 170.515625 57.13671875 C170.09201384 58.46829978 169.66849312 59.79990959 169.24505615 61.13154602 C167.47419795 66.70015813 165.70205322 72.26836011 163.92871094 77.83618164 C162.62307877 81.93595721 161.31885646 86.03617944 160.015625 90.13671875 C159.80334763 90.80439144 159.59107025 91.47206413 159.37236023 92.15996933 C155.98290825 102.82720101 152.66327833 113.5141828 149.41070557 124.2240448 C149.10598328 125.22365738 148.80126099 126.22326996 148.48730469 127.25317383 C148.2226239 128.12629715 147.95794312 128.99942047 147.6852417 129.89900208 C147 132 147 132 146 134 C137.09 134 128.18 134 119 134 C115.33351504 123.96081499 112.05014368 113.95473999 109.18115234 103.66137695 C107.75044972 98.55299295 106.21871487 93.51886705 104.5 88.5 C102.41449014 82.37889315 100.54297771 76.21307622 98.75 70 C98.49154297 69.11505859 98.23308594 68.23011719 97.96679688 67.31835938 C96.60580843 62.54582657 95.56291747 57.9322293 95 53 C94.34 53 93.68 53 93 53 C92.89478027 53.6693457 92.78956055 54.33869141 92.68115234 55.02832031 C91.53738401 61.83867092 89.81832634 68.21059695 87.625 74.75 C83.81949954 86.35468548 80.2000856 98.01012809 76.625 109.6875 C75.84120675 112.24761672 75.05732596 114.80770577 74.27270508 117.36756897 C73.79830758 118.91570521 73.32462574 120.46406102 72.85180664 122.01268005 C72.6372583 122.71320999 72.42270996 123.41373993 72.20166016 124.13549805 C72.01705231 124.73960007 71.83244446 125.34370209 71.64224243 125.96611023 C70.79337581 128.6543492 69.89147088 131.32558736 69 134 C60.09 134 51.18 134 42 134 C13.00626279 42.72129767 13.00626279 42.72129767 4.8125 16.375 C4.43714111 15.16956543 4.06178223 13.96413086 3.67504883 12.72216797 C3.33497803 11.62533691 2.99490723 10.52850586 2.64453125 9.3984375 C2.34909424 8.44630371 2.05365723 7.49416992 1.74926758 6.51318359 C1.10699709 4.35888827 0.54521985 2.18087942 0 0 Z " fill="#EECF25" transform="translate(617,818)"/>
<path d="M0 0 C78.74624399 0 78.74624399 0 90.875 11.1875 C100.5022978 21.89493365 103.67906267 35.16583515 103.34765625 49.2578125 C102.27381649 60.81667197 97.72320477 71.91744578 89.125 79.875 C85.35320889 82.95505335 81.43686436 85.01925698 77 87 C78.26575751 89.64398662 79.63675287 92.04867577 81.328125 94.44140625 C81.79154297 95.09834473 82.25496094 95.7552832 82.73242188 96.43212891 C83.23322266 97.13515137 83.73402344 97.83817383 84.25 98.5625 C84.77142578 99.29903809 85.29285156 100.03557617 85.83007812 100.79443359 C90.54904593 107.4313526 95.38484259 113.98129323 100.27832031 120.49047852 C100.83616211 121.23869873 101.39400391 121.98691895 101.96875 122.7578125 C102.45794922 123.4089502 102.94714844 124.06008789 103.45117188 124.73095703 C105.49369296 127.72326331 107.23052754 130.83852346 109 134 C79.81467621 136.51493386 79.81467621 136.51493386 72.48730469 132.6875 C68.78734456 129.23340432 66.90302123 124.91460423 65.02197266 120.28417969 C63.27873473 116.38792215 60.74239648 113.07046902 58.25 109.625 C57.33920439 108.30431432 56.43154287 106.98146064 55.52734375 105.65625 C52.78554335 101.67344594 49.97942176 97.73737433 47.14453125 93.8203125 C46 92 46 92 46 90 C40.39 90 34.78 90 29 90 C29 104.52 29 119.04 29 134 C19.43 134 9.86 134 0 134 C0 89.78 0 45.56 0 0 Z " fill="#4E0767" transform="translate(352,818)"/>
<path d="M0 0 C11.88357018 9.13365311 19.52897212 20.33260344 23 35 C24.73284207 51.70927474 21.35110095 65.85908071 11.22265625 79.37109375 C2.56386753 89.87142445 -10.5140286 96.96045494 -24 99 C-39.89865007 100.02065408 -54.10222575 96.2882381 -66.3125 85.6875 C-78.28867148 74.1719505 -84.80409094 60.93527762 -85.375 44.25 C-85.13096374 30.08064446 -79.14258998 16.5153832 -69.4609375 6.203125 C-61.82028507 -0.63707813 -53.10319597 -5.88097762 -43 -8 C-42.09314453 -8.27263672 -42.09314453 -8.27263672 -41.16796875 -8.55078125 C-26.59435689 -11.57053866 -12.21962205 -7.97459206 0 0 Z " fill="#F3DA07" transform="translate(726,250)"/>
<path d="M0 0 C10.09776633 7.70997543 17.68866183 18.72096012 20.3125 31.3125 C21.71405444 50.11846082 19.62845239 64.91351876 7.28125 79.75390625 C-2.62145606 90.35626002 -15.46993386 96.47495834 -29.87890625 97.55078125 C-38.5336663 97.74132637 -45.63311617 96.46557274 -53.6875 93.3125 C-54.99847656 92.80396484 -54.99847656 92.80396484 -56.3359375 92.28515625 C-67.82573856 87.19267345 -75.70093743 78.11918887 -81.6875 67.3125 C-82.5846875 65.765625 -82.5846875 65.765625 -83.5 64.1875 C-88.44739705 52.20959135 -88.69822889 36.92058545 -84.625 24.6875 C-77.78439815 8.34286869 -66.17964487 -1.74503494 -50.1953125 -8.78515625 C-33.31853903 -14.89375271 -14.26684295 -9.75426417 0 0 Z " fill="#F3DA07" transform="translate(540.6875,251.6875)"/>
<path d="M0 0 C30.36 0 60.72 0 92 0 C92 8.58 92 17.16 92 26 C70.88 26 49.76 26 28 26 C28 34.91 28 43.82 28 53 C48.13 53 68.26 53 89 53 C89 61.58 89 70.16 89 79 C68.54 79 48.08 79 27 79 C27 88.57 27 98.14 27 108 C49.11 108 71.22 108 94 108 C94 116.58 94 125.16 94 134 C62.98 134 31.96 134 0 134 C0 89.78 0 45.56 0 0 Z " fill="#4D0466" transform="translate(237,818)"/>
<path d="M0 0 C30.36 0 60.72 0 92 0 C92 8.58 92 17.16 92 26 C70.55 26 49.1 26 27 26 C27 34.91 27 43.82 27 53 C47.46 53 67.92 53 89 53 C89 61.58 89 70.16 89 79 C68.54 79 48.08 79 27 79 C27 88.57 27 98.14 27 108 C49.11 108 71.22 108 94 108 C94 116.58 94 125.16 94 134 C62.98 134 31.96 134 0 134 C0 89.78 0 45.56 0 0 Z " fill="#EECF25" transform="translate(984,818)"/>
<path d="M0 0 C9.57 0 19.14 0 29 0 C29.33 16.5 29.66 33 30 50 C34.62 43.73 39.24 37.46 44 31 C46.86747811 27.24749778 49.73831737 23.50154891 52.6328125 19.77050781 C56.04334777 15.35386464 59.41774988 10.90924035 62.79907227 6.47021484 C63.33072998 5.7736377 63.8623877 5.07706055 64.41015625 4.359375 C64.88590088 3.73514648 65.36164551 3.11091797 65.85180664 2.46777344 C67 1 67 1 68 0 C70.59359322 -0.08851529 73.16039691 -0.11525945 75.75390625 -0.09765625 C76.52935287 -0.0962413 77.3047995 -0.09482635 78.10374451 -0.09336853 C80.59003494 -0.08775345 83.0762366 -0.07519846 85.5625 -0.0625 C87.24413933 -0.05748694 88.92578006 -0.0529237 90.60742188 -0.04882812 C94.73831566 -0.03777913 98.86914276 -0.02050445 103 0 C102.63285889 0.48903809 102.26571777 0.97807617 101.88745117 1.48193359 C99.31196847 4.91399516 96.73902429 8.34784756 94.17578125 11.7890625 C88.5251572 19.36563531 82.79404333 26.86598726 76.93359375 34.28125 C73.49745214 38.62965212 70.09141946 43.00135408 66.6875 47.375 C66.11273926 48.11218262 65.53797852 48.84936523 64.94580078 49.60888672 C63.83737124 51.0335513 62.7333984 52.46169641 61.63427734 53.89355469 C60.51421531 55.33721995 59.3726291 56.76436717 58.21337891 58.17675781 C57.65440918 58.87381836 57.09543945 59.57087891 56.51953125 60.2890625 C56.01139893 60.9073291 55.5032666 61.5255957 54.97973633 62.16259766 C53.80332341 63.95705846 53.80332341 63.95705846 54.21020508 66.04467773 C55.50475986 69.24965123 57.7170658 71.7775158 59.875 74.4375 C60.36677734 75.05367187 60.85855469 75.66984375 61.36523438 76.3046875 C65.11565245 80.97718288 68.9763775 85.55218269 72.87255859 90.10327148 C76.18697975 93.99046127 79.36577873 97.96654844 82.5 102 C86.13092932 106.67194687 89.84697868 111.24862922 93.6875 115.75 C97.05530119 119.70173688 100.40724492 123.66225741 103.6875 127.6875 C104.33074219 128.47511719 104.97398437 129.26273438 105.63671875 130.07421875 C107 132 107 132 107 134 C102.01982752 134.22383228 97.04262653 134.38639099 92.05859375 134.49438477 C90.3666684 134.53942743 88.67508917 134.60068735 86.984375 134.67895508 C72.99386599 135.31001283 72.99386599 135.31001283 68.2409668 132.18725586 C66.19133221 129.90105999 64.59214846 127.62048906 63 125 C62.10566542 123.86109419 61.1969921 122.73318959 60.26953125 121.62109375 C59.44786643 120.56194975 58.62889099 119.50071439 57.8125 118.4375 C53.25075364 112.55989643 48.59062114 106.77123598 43.85473633 101.03295898 C39.03247746 95.14873345 34.58206807 89.1094241 30 83 C29.67 99.83 29.34 116.66 29 134 C19.43 134 9.86 134 0 134 C0 89.78 0 45.56 0 0 Z " fill="#4E0767" transform="translate(477,818)"/>
<path d="M0 0 C31.02 0 62.04 0 94 0 C94 14.62218774 94 14.62218774 90.7734375 19.5859375 C90.07839111 20.6891333 89.38334473 21.7923291 88.66723633 22.92895508 C87.90350064 24.07786486 87.13941342 25.22654103 86.375 26.375 C85.59165017 27.59924436 84.81133931 28.82543806 84.03393555 30.0534668 C82.45881864 32.53524587 80.87036831 35.00756579 79.27001953 37.47314453 C76.00617863 42.51844646 72.91373149 47.66626001 69.8125 52.8125 C68.6767813 54.68029595 67.54006629 56.54748646 66.40234375 58.4140625 C65.84401855 59.3309082 65.28569336 60.24775391 64.71044922 61.19238281 C62.95488857 64.07404816 61.19822649 66.95503992 59.44140625 69.8359375 C58.84416748 70.8158667 58.24692871 71.7957959 57.6315918 72.80541992 C56.52816809 74.61583227 55.42423982 76.42593729 54.31958008 78.2355957 C48.49529459 87.79369802 42.75918184 97.40136361 37 107 C56.14 107 75.28 107 95 107 C95 115.91 95 124.82 95 134 C62.66 134 30.32 134 -3 134 C-3 122.51074244 -2.86367526 118.90216047 3 110.3125 C4.29225494 108.30897306 5.58389795 106.30505133 6.875 104.30078125 C7.55304687 103.27033691 8.23109375 102.23989258 8.9296875 101.17822266 C12.39782487 95.85414102 15.68759081 90.42177397 19 85 C20.34961462 82.80819597 21.69987251 80.61678789 23.05078125 78.42578125 C27.29197403 71.53397251 31.50117739 64.62289389 35.69335938 57.70117188 C41.72713815 47.75732046 47.87680756 37.89131086 54 28 C36.18 27.67 18.36 27.34 0 27 C0 18.09 0 9.18 0 0 Z " fill="#EECF25" transform="translate(869,818)"/>
<path d="M0 0 C3.31509441 2.76512953 6.52339131 5.62031307 9.46533203 8.78417969 C9.46533203 9.44417969 9.46533203 10.10417969 9.46533203 10.78417969 C8.80533203 10.78417969 8.14533203 10.78417969 7.46533203 10.78417969 C7.06435303 11.66734863 7.06435303 11.66734863 6.65527344 12.56835938 C5.44891116 14.81475741 4.17192553 16.38896305 2.42626953 18.23730469 C1.84619141 18.85605469 1.26611328 19.47480469 0.66845703 20.11230469 C0.06517578 20.74652344 -0.53810547 21.38074219 -1.15966797 22.03417969 C-1.77068359 22.68386719 -2.38169922 23.33355469 -3.01123047 24.00292969 C-4.51494871 25.60063032 -6.02282534 27.19417117 -7.53466797 28.78417969 C-8.05649658 28.36450928 -8.5783252 27.94483887 -9.1159668 27.51245117 C-20.1473985 18.72706133 -30.74254927 16.82508035 -44.53466797 17.78417969 C-47.93994916 18.62469338 -50.59501399 19.89313975 -53.53466797 21.78417969 C-54.22947266 22.20828125 -54.92427734 22.63238281 -55.64013672 23.06933594 C-64.14195405 28.79570071 -69.06340818 37.59135404 -71.09716797 47.53417969 C-73.14199558 62.72432767 -71.39788417 77.08432375 -61.90966797 89.53417969 C-56.57818343 95.39325905 -48.57124151 99.42491793 -40.68701172 99.98730469 C-28.4085182 100.16633497 -16.96928669 97.82750269 -7.75341797 89.09667969 C-7.35123047 88.66355469 -6.94904297 88.23042969 -6.53466797 87.78417969 C-2.80477928 89.279458 -1.01692293 91.37172766 1.40283203 94.53417969 C3.68598882 97.50570397 5.97003561 100.3602662 8.52783203 103.09667969 C10.46533203 105.78417969 10.46533203 105.78417969 10.34814453 108.20996094 C7.91528279 115.30401353 -1.22126057 119.34042506 -7.47216797 122.59667969 C-23.70810701 130.39088332 -42.29722856 131.48233798 -59.53466797 125.78417969 C-76.63326019 119.17448159 -87.78387926 107.65484986 -95.28466797 90.97167969 C-103.26409177 70.29891506 -103.29058555 46.01468994 -95.17919922 25.32714844 C-88.32440035 10.71705433 -76.56153465 -1.7290393 -61.25732422 -7.43847656 C-41.05443041 -13.89507149 -17.34632578 -13.74239618 0 0 Z " fill="#4D0466" transform="translate(104.53466796875,826.2158203125)"/>
<path d="M0 0 C9.24 0 18.48 0 28 0 C28 34.98 28 69.96 28 106 C48.13 106 68.26 106 89 106 C89 115.24 89 124.48 89 134 C59.63 134 30.26 134 0 134 C0 89.78 0 45.56 0 0 Z " fill="#4C0266" transform="translate(132,818)"/>
<path d="M0 0 C3.62401213 1.49846794 5.6317703 3.55788493 8.1875 6.5 C8.97769531 7.39976562 9.76789062 8.29953125 10.58203125 9.2265625 C11.77892578 10.59941406 11.77892578 10.59941406 13 12 C14.4549168 13.62805965 15.91320358 15.25311457 17.375 16.875 C18.47714844 18.10089844 18.47714844 18.10089844 19.6015625 19.3515625 C21.33911264 21.27022536 23.08277222 23.18165764 24.8359375 25.0859375 C25.56224365 25.87508545 25.56224365 25.87508545 26.30322266 26.68017578 C27.67469707 28.16829263 29.04822686 29.65451444 30.421875 31.140625 C33.03157582 34.03502046 35.52483845 36.99063092 38 40 C36.71974083 43.38122597 35.2601834 46.45345455 33.41796875 49.5625 C32.90451904 50.43140869 32.39106934 51.30031738 31.86206055 52.19555664 C31.30945557 53.12102295 30.75685059 54.04648926 30.1875 55 C29.61362549 55.96607178 29.03975098 56.93214355 28.44848633 57.92749023 C22.89228066 67.24686912 17.1856897 76.47105247 11.4453125 85.67773438 C9.34736775 89.04862128 7.26585864 92.42951302 5.1875 95.8125 C4.24970703 97.33810547 4.24970703 97.33810547 3.29296875 98.89453125 C2.86628906 99.58933594 2.43960938 100.28414063 2 101 C-2.16101432 99.61299523 -3.25171148 96.72869957 -5.375 93.125 C-9.93043979 85.58586004 -14.82010087 78.32780818 -19.88427734 71.12158203 C-20.42004395 70.35185059 -20.95581055 69.58211914 -21.5078125 68.7890625 C-21.98879395 68.10537598 -22.46977539 67.42168945 -22.96533203 66.71728516 C-24 65 -24 65 -24 63 C-24.66 63 -25.32 63 -26 63 C-26.268125 62.48953125 -26.53625 61.9790625 -26.8125 61.453125 C-30.46099476 54.6842071 -34.67028275 48.34953572 -39 42 C-37.54811406 38.64956603 -35.7180341 36.49513804 -33.11328125 33.953125 C-32.33919922 33.19 -31.56511719 32.426875 -30.76757812 31.640625 C-29.55231445 30.45726562 -29.55231445 30.45726562 -28.3125 29.25 C-23.22102277 24.27056016 -18.2754257 19.27225693 -13.63696289 13.86621094 C-11.07530694 10.94580854 -8.33071873 8.22306585 -5.5625 5.5 C-5.02173828 4.96375 -4.48097656 4.4275 -3.92382812 3.875 C-2.61823383 2.58095964 -1.30947004 1.29011826 0 0 Z " fill="#F4DB03" transform="translate(604,304)"/>
<path d="M0 0 C9.24 0 18.48 0 28 0 C28 44.22 28 88.44 28 134 C18.76 134 9.52 134 0 134 C0 89.78 0 45.56 0 0 Z " fill="#EECF23" transform="translate(820,818)"/>
<path d="M0 0 C7.8577229 4.55559235 14.37534184 11.61430678 17.27734375 20.3203125 C18.07695845 31.8688461 17.57924937 41.24492964 10.08984375 50.6328125 C3.89105938 57.23238035 -3.30464954 60.34844687 -12.25585938 60.6640625 C-22.62207165 60.81892655 -29.29961473 58.71137617 -37.09765625 51.5703125 C-44.11431544 44.08587603 -46.10934953 35.41737582 -46 25.41796875 C-45.31191031 17.73268535 -40.98148321 10.83453503 -35.72265625 5.3203125 C-25.26261315 -3.14912994 -12.54658135 -5.81575732 0 0 Z " fill="#500E54" transform="translate(709.72265625,265.6796875)"/>
<path d="M0 0 C7.32272601 5.27775069 12.1524974 11.84424743 14.5859375 20.55859375 C15.83918358 30.71648305 14.01213808 39.65045019 7.82421875 47.91015625 C2.18289347 54.0206384 -3.96462002 58.09677537 -12.328125 58.96484375 C-22.54952933 59.36366957 -30.34133088 57.81369739 -38.5234375 51.37109375 C-41.81700351 48.21362551 -44.16204919 44.50320304 -46.4140625 40.55859375 C-46.97673828 39.70007813 -46.97673828 39.70007813 -47.55078125 38.82421875 C-50.10248976 32.12742718 -49.41924763 22.29881749 -47.57421875 15.43359375 C-43.5247066 6.70737227 -36.43517021 -0.08691872 -27.4140625 -3.44140625 C-18.34033522 -6.20056005 -8.08836818 -4.82946256 0 0 Z " fill="#500F54" transform="translate(525.4140625,267.44140625)"/>
<path d="M0 0 C5.28 -0.0825 10.56 -0.165 16 -0.25 C18.475 -0.30462402 18.475 -0.30462402 21 -0.36035156 C28.50688446 -0.45768511 34.6377665 -0.46401971 41 4 C45.70685827 9.67236765 46.49036319 14.767143 46 22 C44.48809426 28.25000405 41.77203655 32.47024434 36.32910156 36.12060547 C32.97316849 37.38769886 29.70696663 37.24599625 26.171875 37.1953125 C25.50752441 37.19329834 24.84317383 37.19128418 24.15869141 37.18920898 C21.68905686 37.17878502 19.21952113 37.15086245 16.75 37.125 C11.2225 37.08375 5.695 37.0425 0 37 C0 24.79 0 12.58 0 0 Z " fill="#FDFDFE" transform="translate(381,845)"/>
<path d="M0 0 C3.62401213 1.49846794 5.6317703 3.55788493 8.1875 6.5 C8.97769531 7.39976562 9.76789062 8.29953125 10.58203125 9.2265625 C11.77892578 10.59941406 11.77892578 10.59941406 13 12 C14.4549168 13.62805965 15.91320358 15.25311457 17.375 16.875 C18.47714844 18.10089844 18.47714844 18.10089844 19.6015625 19.3515625 C21.33911264 21.27022536 23.08277222 23.18165764 24.8359375 25.0859375 C25.56224365 25.87508545 25.56224365 25.87508545 26.30322266 26.68017578 C27.67469707 28.16829263 29.04822686 29.65451444 30.421875 31.140625 C33.03157582 34.03502046 35.52483845 36.99063092 38 40 C36.71974083 43.38122597 35.2601834 46.45345455 33.41796875 49.5625 C32.90451904 50.43140869 32.39106934 51.30031738 31.86206055 52.19555664 C31.30945557 53.12102295 30.75685059 54.04648926 30.1875 55 C29.61362549 55.96607178 29.03975098 56.93214355 28.44848633 57.92749023 C22.89228066 67.24686912 17.1856897 76.47105247 11.4453125 85.67773438 C9.34736775 89.04862128 7.26585864 92.42951302 5.1875 95.8125 C4.24970703 97.33810547 4.24970703 97.33810547 3.29296875 98.89453125 C2.86628906 99.58933594 2.43960938 100.28414063 2 101 C-2.16101432 99.61299523 -3.25171148 96.72869957 -5.375 93.125 C-9.93043979 85.58586004 -14.82010087 78.32780818 -19.88427734 71.12158203 C-20.42004395 70.35185059 -20.95581055 69.58211914 -21.5078125 68.7890625 C-21.98879395 68.10537598 -22.46977539 67.42168945 -22.96533203 66.71728516 C-24 65 -24 65 -24 63 C-24.66 63 -25.32 63 -26 63 C-26.268125 62.48953125 -26.53625 61.9790625 -26.8125 61.453125 C-30.46099476 54.6842071 -34.67028275 48.34953572 -39 42 C-37.54811406 38.64956603 -35.7180341 36.49513804 -33.11328125 33.953125 C-32.33919922 33.19 -31.56511719 32.426875 -30.76757812 31.640625 C-29.55231445 30.45726562 -29.55231445 30.45726562 -28.3125 29.25 C-23.22102277 24.27056016 -18.2754257 19.27225693 -13.63696289 13.86621094 C-11.07530694 10.94580854 -8.33071873 8.22306585 -5.5625 5.5 C-5.02173828 4.96375 -4.48097656 4.4275 -3.92382812 3.875 C-2.61823383 2.58095964 -1.30947004 1.29011826 0 0 Z M-2.22729492 4.984375 C-3.59011597 6.35335938 -3.59011597 6.35335938 -4.98046875 7.75 C-5.47154617 8.24153564 -5.9626236 8.73307129 -6.46858215 9.23950195 C-7.51243095 10.28637885 -8.5538412 11.33569193 -9.59301758 12.38720703 C-11.1586552 13.97082396 -12.73186675 15.54656768 -14.30664062 17.12109375 C-19.22350777 22.05609909 -24.05394134 27.02602287 -28.54223633 32.3605957 C-30.09346581 34.10511186 -31.76880876 35.62340742 -33.5 37.1875 C-34.325 38.115625 -35.15 39.04375 -36 40 C-35.73179645 43.79699601 -34.48979268 46.10337171 -32.234375 49.1015625 C-28.65939066 54.02583869 -25.28648264 59.05752104 -21.953125 64.1484375 C-21.41167847 64.97353821 -20.87023193 65.79863892 -20.31237793 66.64874268 C-18.62360736 69.22330511 -16.9365874 71.79900694 -15.25 74.375 C-13.54551575 76.97774793 -11.84055995 79.58017985 -10.13397217 82.18154907 C-9.07872782 83.79008532 -8.02467411 85.39940348 -6.97198486 87.00961304 C-6.4942865 87.73782257 -6.01658813 88.4660321 -5.52441406 89.21630859 C-5.10806702 89.85233002 -4.69171997 90.48835144 -4.26275635 91.14364624 C-2.90179591 93.14436794 -1.46531717 95.07475141 0 97 C3.90641398 95.69786201 4.30244634 94.26276005 6.3359375 90.734375 C6.98216064 89.62594238 7.62838379 88.51750977 8.29418945 87.37548828 C8.63374664 86.78382874 8.97330383 86.19216919 9.32315063 85.58258057 C11.09510339 82.49540261 12.89533366 79.42474786 14.69140625 76.3515625 C15.05282211 75.73123138 15.41423798 75.11090027 15.78660583 74.47177124 C19.19752412 68.62864801 22.73278601 62.86618727 26.3125 57.125 C26.84472168 56.27131836 27.37694336 55.41763672 27.92529297 54.53808594 C28.4204541 53.7443457 28.91561523 52.95060547 29.42578125 52.1328125 C29.87518066 51.40610352 30.32458008 50.67939453 30.78759766 49.93066406 C31.79617966 48.32456933 32.85147865 46.74792753 33.91796875 45.1796875 C35.18114937 43.09157377 35.18114937 43.09157377 34.8671875 40.90625 C33.87256113 38.71986411 32.74957702 37.27226584 31.125 35.5 C30.49851562 34.8090625 29.87203125 34.118125 29.2265625 33.40625 C28.49179687 32.6121875 27.75703125 31.818125 27 31 C25.64328874 29.51995135 24.28658833 28.03989272 22.93017578 26.55957031 C21.97364337 25.51649604 21.01628071 24.47418255 20.05810547 23.43261719 C15.63380897 18.61968975 11.30380048 13.73252409 7.08984375 8.734375 C6.46207031 7.99703125 5.83429687 7.2596875 5.1875 6.5 C4.62417969 5.8296875 4.06085937 5.159375 3.48046875 4.46875 C1.01957247 2.02733311 0.2754064 2.7546308 -2.22729492 4.984375 Z " fill="#E3D63F" transform="translate(604,304)"/>
<path d="M0 0 C4.01464018 1.33821339 5.20871511 3.92084493 7.37890625 7.3359375 C7.79164291 7.97109283 8.20437958 8.60624817 8.62962341 9.26065063 C9.94836528 11.29385332 11.25553879 13.33420925 12.5625 15.375 C13.44650688 16.74267822 14.33126388 18.1098719 15.21679688 19.4765625 C16.84136894 21.98578082 18.46140413 24.4978022 20.07641602 27.01318359 C21.36831455 29.01915982 22.67649156 31.01473734 24 33 C24.66 33 25.32 33 26 33 C27.26455453 31.15366717 28.43129918 29.24015689 29.5546875 27.3046875 C30.06891769 26.42709274 30.06891769 26.42709274 30.59353638 25.5317688 C31.6943777 23.65017342 32.78501359 21.76290065 33.875 19.875 C34.95972243 18.00968293 36.04654682 16.14562011 37.13504028 14.28250122 C38.1301356 12.57710941 39.11965925 10.86847016 40.10888672 9.15966797 C41.99167282 6.01391304 43.84415031 2.96506068 46 0 C46.66 0 47.32 0 48 0 C46.58474202 3.82524512 44.80678002 7.18693447 42.69921875 10.67578125 C42.05146484 11.75150391 41.40371094 12.82722656 40.73632812 13.93554688 C40.06021484 15.04994141 39.38410156 16.16433594 38.6875 17.3125 C38.02298828 18.41529297 37.35847656 19.51808594 36.67382812 20.65429688 C33.1649554 26.46771113 29.61831647 32.25408545 26 38 C21.83898568 36.61299523 20.74828852 33.72869957 18.625 30.125 C14.06956021 22.58586004 9.17989913 15.32780818 4.11572266 8.12158203 C3.57995605 7.35185059 3.04418945 6.58211914 2.4921875 5.7890625 C2.01120605 5.10537598 1.53022461 4.42168945 1.03466797 3.71728516 C0 2 0 2 0 0 Z " fill="#DAC933" transform="translate(580,367)"/>
<path d="M0 0 C15.84 0 31.68 0 48 0 C47.67 0.99 47.34 1.98 47 3 C46.44289841 2.99777939 45.88579681 2.99555878 45.31181335 2.99327087 C39.52078898 2.97117125 33.72977657 2.95607379 27.9387207 2.94506836 C25.77660638 2.94003528 23.61449547 2.93320831 21.45239258 2.92456055 C18.34715941 2.91245021 15.2419712 2.90676148 12.13671875 2.90234375 C11.16788254 2.89718246 10.19904633 2.89202118 9.20085144 2.88670349 C7.84979057 2.88659019 7.84979057 2.88659019 6.47143555 2.88647461 C5.67867722 2.884254 4.88591888 2.88203339 4.06913757 2.87974548 C1.80155302 2.92134223 1.80155302 2.92134223 -1 4 C-0.67 2.68 -0.34 1.36 0 0 Z " fill="#532569" transform="translate(579,474)"/>
<path d="M0 0 C0.66 0.33 1.32 0.66 2 1 C-3.94 6.94 -9.88 12.88 -16 19 C-16.66 18.67 -17.32 18.34 -18 18 C-6.25 4.25 -6.25 4.25 0 0 Z " fill="#53166F" transform="translate(258,415)"/>
<path d="M0 0 C0.66 0.33 1.32 0.66 2 1 C-2.03523352 5.81123996 -6.04467233 10.13242719 -11 14 C-10.52590352 9.68269587 -7.96603297 7.66352539 -4.9375 4.75 C-4.01839844 3.85796875 -3.09929688 2.9659375 -2.15234375 2.046875 C-1.44207031 1.37140625 -0.73179687 0.6959375 0 0 Z " fill="#E3D431" transform="translate(580,329)"/>
<path d="M0 0 C-1.53218685 3.63061667 -3.7183144 5.9863773 -6.5 8.75 C-7.69109375 9.94882812 -7.69109375 9.94882812 -8.90625 11.171875 C-11 13 -11 13 -13 13 C-11.46781315 9.36938333 -9.2816856 7.0136227 -6.5 4.25 C-5.7059375 3.45078125 -4.911875 2.6515625 -4.09375 1.828125 C-2 0 -2 0 0 0 Z " fill="#ECDA25" transform="translate(477,251)"/>
<path d="M0 0 C1 3 1 3 0.22265625 4.82421875 C-0.8515625 6.54947917 -1.92578125 8.27473958 -3 10 C-6 9 -6 9 -7.6875 5.9375 C-8.120625 4.968125 -8.55375 3.99875 -9 3 C-7.02 3.66 -5.04 4.32 -3 5 C-2.01 3.35 -1.02 1.7 0 0 Z " fill="#E4D740" transform="translate(609,395)"/>
<path d="M0 0 C0.66 0.33 1.32 0.66 2 1 C-1.3 4.3 -4.6 7.6 -8 11 C-8 6.67750434 -5.85084926 5.11604454 -3 2 C-2.01 1.34 -1.02 0.68 0 0 Z " fill="#561A35" transform="translate(678,268)"/>
</svg>
